<mxfile host="app.diagrams.net" modified="2024-04-10T07:11:11.874Z" agent="Mozilla/5.0 (Macintosh; Intel Mac OS X 10_15_7) AppleWebKit/537.36 (KHTML, like Gecko) Chrome/123.0.0.0 Safari/537.36" etag="rjjP4UFNL7fBRtiDm-oO" version="24.2.2" type="github">
  <diagram name="第 1 页" id="uyAYRrN_ciRT2oY6E2k2">
    <mxGraphModel dx="3159" dy="927" grid="1" gridSize="10" guides="1" tooltips="1" connect="1" arrows="1" fold="1" page="1" pageScale="1" pageWidth="1169" pageHeight="1654" math="0" shadow="0">
      <root>
        <mxCell id="0" />
        <mxCell id="1" parent="0" />
        <mxCell id="3dFxkeG1vcI2UrQQrLY8-1" value="&lt;div&gt;工&lt;div&gt;作&lt;/div&gt;&lt;div&gt;日&lt;/div&gt;&lt;/div&gt;&lt;div&gt;|&lt;/div&gt;&lt;div&gt;早&lt;br&gt;晚&lt;/div&gt;&lt;div&gt;班&lt;br&gt;&lt;/div&gt;" style="rounded=0;whiteSpace=wrap;html=1;" parent="1" vertex="1">
          <mxGeometry x="171" y="20" width="30" height="660" as="geometry" />
        </mxCell>
        <mxCell id="3dFxkeG1vcI2UrQQrLY8-3" value="&lt;span style=&quot;background-color: initial;&quot;&gt;响应&lt;/span&gt;&lt;span style=&quot;background-color: initial;&quot;&gt;前&lt;/span&gt;" style="rounded=0;whiteSpace=wrap;html=1;" parent="1" vertex="1">
          <mxGeometry x="201" y="20" width="50" height="310" as="geometry" />
        </mxCell>
        <mxCell id="3dFxkeG1vcI2UrQQrLY8-4" value="处理中" style="rounded=0;whiteSpace=wrap;html=1;" parent="1" vertex="1">
          <mxGeometry x="201" y="330" width="50" height="280" as="geometry" />
        </mxCell>
        <mxCell id="3dFxkeG1vcI2UrQQrLY8-5" value="处理后" style="rounded=0;whiteSpace=wrap;html=1;" parent="1" vertex="1">
          <mxGeometry x="201" y="610" width="50" height="70" as="geometry" />
        </mxCell>
        <mxCell id="3dFxkeG1vcI2UrQQrLY8-6" value="一线运维(二部小组现场)" style="swimlane;startSize=20;" parent="1" vertex="1">
          <mxGeometry x="251" width="169" height="680" as="geometry" />
        </mxCell>
        <mxCell id="JaaYy12fVb64TVp_esTt-30" value="" style="edgeStyle=orthogonalEdgeStyle;rounded=0;orthogonalLoop=1;jettySize=auto;html=1;" parent="3dFxkeG1vcI2UrQQrLY8-6" source="3dFxkeG1vcI2UrQQrLY8-20" target="JaaYy12fVb64TVp_esTt-1" edge="1">
          <mxGeometry relative="1" as="geometry" />
        </mxCell>
        <mxCell id="3dFxkeG1vcI2UrQQrLY8-20" value="有效告警" style="ellipse;whiteSpace=wrap;html=1;" parent="3dFxkeG1vcI2UrQQrLY8-6" vertex="1">
          <mxGeometry x="31.25" y="150" width="105" height="20" as="geometry" />
        </mxCell>
        <mxCell id="JaaYy12fVb64TVp_esTt-31" value="" style="edgeStyle=orthogonalEdgeStyle;rounded=0;orthogonalLoop=1;jettySize=auto;html=1;" parent="3dFxkeG1vcI2UrQQrLY8-6" source="JaaYy12fVb64TVp_esTt-1" target="JaaYy12fVb64TVp_esTt-2" edge="1">
          <mxGeometry relative="1" as="geometry" />
        </mxCell>
        <mxCell id="JaaYy12fVb64TVp_esTt-107" value="查看值班日历" style="edgeLabel;html=1;align=center;verticalAlign=middle;resizable=0;points=[];" parent="JaaYy12fVb64TVp_esTt-31" vertex="1" connectable="0">
          <mxGeometry x="-0.2779" y="-1" relative="1" as="geometry">
            <mxPoint x="1" y="2" as="offset" />
          </mxGeometry>
        </mxCell>
        <mxCell id="JaaYy12fVb64TVp_esTt-1" value="告警分派" style="rounded=1;whiteSpace=wrap;html=1;" parent="3dFxkeG1vcI2UrQQrLY8-6" vertex="1">
          <mxGeometry x="30" y="200" width="107.5" height="30" as="geometry" />
        </mxCell>
        <mxCell id="JaaYy12fVb64TVp_esTt-9" value="" style="sketch=0;outlineConnect=0;fontColor=#232F3E;gradientColor=none;strokeColor=#232F3E;fillColor=#ffffff;dashed=0;verticalLabelPosition=bottom;verticalAlign=top;align=center;html=1;fontSize=12;fontStyle=0;aspect=fixed;shape=mxgraph.aws4.resourceIcon;resIcon=mxgraph.aws4.client;" parent="3dFxkeG1vcI2UrQQrLY8-6" vertex="1">
          <mxGeometry x="31.25" y="60" width="60" height="60" as="geometry" />
        </mxCell>
        <mxCell id="JaaYy12fVb64TVp_esTt-11" value="" style="sketch=0;outlineConnect=0;fontColor=#232F3E;gradientColor=none;strokeColor=#232F3E;fillColor=#ffffff;dashed=0;verticalLabelPosition=bottom;verticalAlign=top;align=center;html=1;fontSize=12;fontStyle=0;aspect=fixed;shape=mxgraph.aws4.resourceIcon;resIcon=mxgraph.aws4.client;" parent="3dFxkeG1vcI2UrQQrLY8-6" vertex="1">
          <mxGeometry x="53.75" y="50" width="60" height="60" as="geometry" />
        </mxCell>
        <mxCell id="JaaYy12fVb64TVp_esTt-13" value="" style="sketch=0;outlineConnect=0;fontColor=#232F3E;gradientColor=none;strokeColor=#232F3E;fillColor=#ffffff;dashed=0;verticalLabelPosition=bottom;verticalAlign=top;align=center;html=1;fontSize=12;fontStyle=0;aspect=fixed;shape=mxgraph.aws4.resourceIcon;resIcon=mxgraph.aws4.client;" parent="3dFxkeG1vcI2UrQQrLY8-6" vertex="1">
          <mxGeometry x="78.75" y="40" width="60" height="60" as="geometry" />
        </mxCell>
        <mxCell id="JaaYy12fVb64TVp_esTt-24" value="值守多个告警平台" style="text;html=1;align=center;verticalAlign=middle;whiteSpace=wrap;rounded=0;" parent="3dFxkeG1vcI2UrQQrLY8-6" vertex="1">
          <mxGeometry x="30" y="20" width="110" height="30" as="geometry" />
        </mxCell>
        <mxCell id="JaaYy12fVb64TVp_esTt-25" value="" style="endArrow=classic;html=1;rounded=0;" parent="3dFxkeG1vcI2UrQQrLY8-6" edge="1">
          <mxGeometry width="50" height="50" relative="1" as="geometry">
            <mxPoint x="84.62" y="110" as="sourcePoint" />
            <mxPoint x="84.62" y="150" as="targetPoint" />
          </mxGeometry>
        </mxCell>
        <mxCell id="JaaYy12fVb64TVp_esTt-2" value="告警通知" style="rounded=1;whiteSpace=wrap;html=1;" parent="3dFxkeG1vcI2UrQQrLY8-6" vertex="1">
          <mxGeometry x="30" y="280" width="107.5" height="30" as="geometry" />
        </mxCell>
        <mxCell id="3dFxkeG1vcI2UrQQrLY8-75" value="" style="endArrow=none;html=1;rounded=0;" parent="3dFxkeG1vcI2UrQQrLY8-6" edge="1">
          <mxGeometry width="50" height="50" relative="1" as="geometry">
            <mxPoint y="330" as="sourcePoint" />
            <mxPoint x="789" y="330" as="targetPoint" />
            <Array as="points">
              <mxPoint x="519" y="330" />
            </Array>
          </mxGeometry>
        </mxCell>
        <mxCell id="JaaYy12fVb64TVp_esTt-106" value="" style="endArrow=none;html=1;rounded=0;" parent="3dFxkeG1vcI2UrQQrLY8-6" edge="1">
          <mxGeometry width="50" height="50" relative="1" as="geometry">
            <mxPoint x="-1" y="610" as="sourcePoint" />
            <mxPoint x="789" y="610" as="targetPoint" />
          </mxGeometry>
        </mxCell>
        <mxCell id="JaaYy12fVb64TVp_esTt-85" value="告警归档" style="rounded=1;whiteSpace=wrap;html=1;" parent="3dFxkeG1vcI2UrQQrLY8-6" vertex="1">
          <mxGeometry x="50" y="620" width="70" height="40" as="geometry" />
        </mxCell>
        <mxCell id="3dFxkeG1vcI2UrQQrLY8-12" value="二线运维(二部小组现场)" style="swimlane;startSize=20;" parent="1" vertex="1">
          <mxGeometry x="421" width="244" height="680" as="geometry" />
        </mxCell>
        <mxCell id="JaaYy12fVb64TVp_esTt-42" value="" style="edgeStyle=orthogonalEdgeStyle;rounded=0;orthogonalLoop=1;jettySize=auto;html=1;" parent="3dFxkeG1vcI2UrQQrLY8-12" source="3dFxkeG1vcI2UrQQrLY8-23" target="JaaYy12fVb64TVp_esTt-41" edge="1">
          <mxGeometry relative="1" as="geometry" />
        </mxCell>
        <mxCell id="3dFxkeG1vcI2UrQQrLY8-23" value="告警响应" style="rounded=1;whiteSpace=wrap;html=1;" parent="3dFxkeG1vcI2UrQQrLY8-12" vertex="1">
          <mxGeometry x="75" y="360" width="80" height="30" as="geometry" />
        </mxCell>
        <mxCell id="JaaYy12fVb64TVp_esTt-44" value="是" style="edgeStyle=orthogonalEdgeStyle;rounded=0;orthogonalLoop=1;jettySize=auto;html=1;" parent="3dFxkeG1vcI2UrQQrLY8-12" source="JaaYy12fVb64TVp_esTt-41" target="JaaYy12fVb64TVp_esTt-43" edge="1">
          <mxGeometry relative="1" as="geometry" />
        </mxCell>
        <mxCell id="JaaYy12fVb64TVp_esTt-88" value="" style="edgeStyle=orthogonalEdgeStyle;rounded=0;orthogonalLoop=1;jettySize=auto;html=1;" parent="3dFxkeG1vcI2UrQQrLY8-12" source="JaaYy12fVb64TVp_esTt-41" target="JaaYy12fVb64TVp_esTt-46" edge="1">
          <mxGeometry relative="1" as="geometry" />
        </mxCell>
        <mxCell id="JaaYy12fVb64TVp_esTt-41" value="是否可关闭" style="rhombus;whiteSpace=wrap;html=1;" parent="3dFxkeG1vcI2UrQQrLY8-12" vertex="1">
          <mxGeometry x="80" y="420" width="70" height="40" as="geometry" />
        </mxCell>
        <mxCell id="JaaYy12fVb64TVp_esTt-43" value="告警关闭" style="rounded=1;whiteSpace=wrap;html=1;" parent="3dFxkeG1vcI2UrQQrLY8-12" vertex="1">
          <mxGeometry x="75" y="500" width="80" height="30" as="geometry" />
        </mxCell>
        <mxCell id="JaaYy12fVb64TVp_esTt-98" value="" style="edgeStyle=orthogonalEdgeStyle;rounded=0;orthogonalLoop=1;jettySize=auto;html=1;" parent="3dFxkeG1vcI2UrQQrLY8-12" source="JaaYy12fVb64TVp_esTt-63" target="JaaYy12fVb64TVp_esTt-97" edge="1">
          <mxGeometry relative="1" as="geometry" />
        </mxCell>
        <mxCell id="JaaYy12fVb64TVp_esTt-102" value="是" style="edgeLabel;html=1;align=center;verticalAlign=middle;resizable=0;points=[];" parent="JaaYy12fVb64TVp_esTt-98" vertex="1" connectable="0">
          <mxGeometry x="-0.64" relative="1" as="geometry">
            <mxPoint as="offset" />
          </mxGeometry>
        </mxCell>
        <mxCell id="JaaYy12fVb64TVp_esTt-63" value="是否恢复" style="rhombus;whiteSpace=wrap;html=1;" parent="3dFxkeG1vcI2UrQQrLY8-12" vertex="1">
          <mxGeometry x="176" y="500" width="65" height="40" as="geometry" />
        </mxCell>
        <mxCell id="JaaYy12fVb64TVp_esTt-46" value="告警处理" style="rounded=1;whiteSpace=wrap;html=1;" parent="3dFxkeG1vcI2UrQQrLY8-12" vertex="1">
          <mxGeometry x="177" y="425" width="63" height="30" as="geometry" />
        </mxCell>
        <mxCell id="JaaYy12fVb64TVp_esTt-74" value="" style="edgeStyle=orthogonalEdgeStyle;rounded=0;orthogonalLoop=1;jettySize=auto;html=1;" parent="3dFxkeG1vcI2UrQQrLY8-12" source="JaaYy12fVb64TVp_esTt-46" target="JaaYy12fVb64TVp_esTt-63" edge="1">
          <mxGeometry relative="1" as="geometry" />
        </mxCell>
        <mxCell id="JaaYy12fVb64TVp_esTt-89" value="否" style="text;html=1;align=center;verticalAlign=middle;whiteSpace=wrap;rounded=0;" parent="3dFxkeG1vcI2UrQQrLY8-12" vertex="1">
          <mxGeometry x="129" y="410" width="60" height="30" as="geometry" />
        </mxCell>
        <mxCell id="JaaYy12fVb64TVp_esTt-95" value="" style="endArrow=none;html=1;rounded=0;" parent="3dFxkeG1vcI2UrQQrLY8-12" edge="1">
          <mxGeometry width="50" height="50" relative="1" as="geometry">
            <mxPoint x="115" y="650" as="sourcePoint" />
            <mxPoint x="114.72000000000003" y="530" as="targetPoint" />
          </mxGeometry>
        </mxCell>
        <mxCell id="JaaYy12fVb64TVp_esTt-97" value="告警恢复" style="rounded=1;whiteSpace=wrap;html=1;" parent="3dFxkeG1vcI2UrQQrLY8-12" vertex="1">
          <mxGeometry x="178" y="570" width="61" height="30" as="geometry" />
        </mxCell>
        <mxCell id="JaaYy12fVb64TVp_esTt-100" value="" style="endArrow=none;html=1;rounded=0;" parent="3dFxkeG1vcI2UrQQrLY8-12" edge="1">
          <mxGeometry width="50" height="50" relative="1" as="geometry">
            <mxPoint x="208" y="650" as="sourcePoint" />
            <mxPoint x="208.10000000000002" y="600" as="targetPoint" />
          </mxGeometry>
        </mxCell>
        <mxCell id="JaaYy12fVb64TVp_esTt-35" style="edgeStyle=orthogonalEdgeStyle;rounded=0;orthogonalLoop=1;jettySize=auto;html=1;entryX=0;entryY=0.5;entryDx=0;entryDy=0;" parent="1" source="JaaYy12fVb64TVp_esTt-2" target="3dFxkeG1vcI2UrQQrLY8-23" edge="1">
          <mxGeometry relative="1" as="geometry">
            <Array as="points">
              <mxPoint x="335" y="375" />
            </Array>
          </mxGeometry>
        </mxCell>
        <mxCell id="JaaYy12fVb64TVp_esTt-36" value="组内口头传达" style="edgeLabel;html=1;align=center;verticalAlign=middle;resizable=0;points=[];" parent="JaaYy12fVb64TVp_esTt-35" vertex="1" connectable="0">
          <mxGeometry x="0.0035" y="-2" relative="1" as="geometry">
            <mxPoint x="-35" y="-27" as="offset" />
          </mxGeometry>
        </mxCell>
        <mxCell id="JaaYy12fVb64TVp_esTt-37" value="告警认领" style="edgeLabel;html=1;align=center;verticalAlign=middle;resizable=0;points=[];" parent="JaaYy12fVb64TVp_esTt-35" vertex="1" connectable="0">
          <mxGeometry x="0.5403" y="4" relative="1" as="geometry">
            <mxPoint x="8" as="offset" />
          </mxGeometry>
        </mxCell>
        <mxCell id="JaaYy12fVb64TVp_esTt-52" value="系统负责人A/B岗(二部小组现场)" style="swimlane;startSize=20;" parent="1" vertex="1">
          <mxGeometry x="665" width="185" height="680" as="geometry" />
        </mxCell>
        <mxCell id="JaaYy12fVb64TVp_esTt-77" value="" style="edgeStyle=orthogonalEdgeStyle;rounded=0;orthogonalLoop=1;jettySize=auto;html=1;" parent="JaaYy12fVb64TVp_esTt-52" source="JaaYy12fVb64TVp_esTt-66" edge="1">
          <mxGeometry relative="1" as="geometry">
            <mxPoint x="89.00000000000045" y="500" as="targetPoint" />
          </mxGeometry>
        </mxCell>
        <mxCell id="JaaYy12fVb64TVp_esTt-66" value="告警处理" style="rounded=1;whiteSpace=wrap;html=1;" parent="JaaYy12fVb64TVp_esTt-52" vertex="1">
          <mxGeometry x="49" y="420" width="80" height="30" as="geometry" />
        </mxCell>
        <mxCell id="mrDc4LvxRdIbX4vzSFws-7" value="是" style="edgeStyle=orthogonalEdgeStyle;rounded=0;orthogonalLoop=1;jettySize=auto;html=1;" edge="1" parent="JaaYy12fVb64TVp_esTt-52" source="mrDc4LvxRdIbX4vzSFws-5" target="mrDc4LvxRdIbX4vzSFws-6">
          <mxGeometry relative="1" as="geometry" />
        </mxCell>
        <mxCell id="mrDc4LvxRdIbX4vzSFws-5" value="是否恢复" style="rhombus;whiteSpace=wrap;html=1;" vertex="1" parent="JaaYy12fVb64TVp_esTt-52">
          <mxGeometry x="56.5" y="500" width="63.5" height="40" as="geometry" />
        </mxCell>
        <mxCell id="mrDc4LvxRdIbX4vzSFws-6" value="告警恢复" style="rounded=1;whiteSpace=wrap;html=1;" vertex="1" parent="JaaYy12fVb64TVp_esTt-52">
          <mxGeometry x="49" y="570" width="80" height="30" as="geometry" />
        </mxCell>
        <mxCell id="mrDc4LvxRdIbX4vzSFws-13" value="" style="endArrow=none;html=1;rounded=0;" edge="1" parent="JaaYy12fVb64TVp_esTt-52">
          <mxGeometry width="50" height="50" relative="1" as="geometry">
            <mxPoint x="88.03999999999996" y="650" as="sourcePoint" />
            <mxPoint x="88.13999999999999" y="600" as="targetPoint" />
          </mxGeometry>
        </mxCell>
        <mxCell id="JaaYy12fVb64TVp_esTt-86" style="edgeStyle=orthogonalEdgeStyle;rounded=0;orthogonalLoop=1;jettySize=auto;html=1;entryX=0;entryY=0.5;entryDx=0;entryDy=0;" parent="1" source="JaaYy12fVb64TVp_esTt-63" target="JaaYy12fVb64TVp_esTt-66" edge="1">
          <mxGeometry relative="1" as="geometry">
            <mxPoint x="690" y="450" as="targetPoint" />
          </mxGeometry>
        </mxCell>
        <mxCell id="JaaYy12fVb64TVp_esTt-101" value="否" style="edgeLabel;html=1;align=center;verticalAlign=middle;resizable=0;points=[];" parent="JaaYy12fVb64TVp_esTt-86" vertex="1" connectable="0">
          <mxGeometry x="-0.7598" y="1" relative="1" as="geometry">
            <mxPoint as="offset" />
          </mxGeometry>
        </mxCell>
        <mxCell id="JaaYy12fVb64TVp_esTt-103" value="告警升级&lt;div&gt;(口头传达)&lt;/div&gt;" style="edgeLabel;html=1;align=center;verticalAlign=middle;resizable=0;points=[];" parent="JaaYy12fVb64TVp_esTt-86" vertex="1" connectable="0">
          <mxGeometry x="0.0528" y="-2" relative="1" as="geometry">
            <mxPoint as="offset" />
          </mxGeometry>
        </mxCell>
        <mxCell id="JaaYy12fVb64TVp_esTt-155" value="工&lt;div&gt;作&lt;/div&gt;&lt;div&gt;日&lt;/div&gt;&lt;div&gt;(夜班)&lt;/div&gt;&lt;div&gt;&amp;amp;&amp;amp;&lt;/div&gt;&lt;div&gt;非&lt;/div&gt;&lt;div&gt;工&lt;/div&gt;&lt;div&gt;作&lt;/div&gt;&lt;div&gt;日&lt;/div&gt;&lt;div&gt;&lt;br&gt;&lt;/div&gt;" style="rounded=0;whiteSpace=wrap;html=1;" parent="1" vertex="1">
          <mxGeometry x="-1040" y="280" width="30" height="880" as="geometry" />
        </mxCell>
        <mxCell id="JaaYy12fVb64TVp_esTt-156" value="&lt;span style=&quot;background-color: initial;&quot;&gt;响应&lt;/span&gt;&lt;span style=&quot;background-color: initial;&quot;&gt;前&lt;/span&gt;" style="rounded=0;whiteSpace=wrap;html=1;" parent="1" vertex="1">
          <mxGeometry x="-1010" y="280" width="50" height="470" as="geometry" />
        </mxCell>
        <mxCell id="JaaYy12fVb64TVp_esTt-157" value="处理中" style="rounded=0;whiteSpace=wrap;html=1;" parent="1" vertex="1">
          <mxGeometry x="-1010" y="750" width="50" height="300" as="geometry" />
        </mxCell>
        <mxCell id="JaaYy12fVb64TVp_esTt-158" value="处理后" style="rounded=0;whiteSpace=wrap;html=1;" parent="1" vertex="1">
          <mxGeometry x="-1010" y="1050" width="50" height="110" as="geometry" />
        </mxCell>
        <mxCell id="JaaYy12fVb64TVp_esTt-159" value="一线运维(南方中心)" style="swimlane;startSize=20;" parent="1" vertex="1">
          <mxGeometry x="-960" y="260" width="340" height="790" as="geometry" />
        </mxCell>
        <mxCell id="JaaYy12fVb64TVp_esTt-160" value="" style="edgeStyle=orthogonalEdgeStyle;rounded=0;orthogonalLoop=1;jettySize=auto;html=1;" parent="JaaYy12fVb64TVp_esTt-159" source="JaaYy12fVb64TVp_esTt-161" target="JaaYy12fVb64TVp_esTt-164" edge="1">
          <mxGeometry relative="1" as="geometry" />
        </mxCell>
        <mxCell id="JaaYy12fVb64TVp_esTt-161" value="有效告警" style="ellipse;whiteSpace=wrap;html=1;" parent="JaaYy12fVb64TVp_esTt-159" vertex="1">
          <mxGeometry x="31.25" y="150" width="105" height="20" as="geometry" />
        </mxCell>
        <mxCell id="JaaYy12fVb64TVp_esTt-162" value="" style="edgeStyle=orthogonalEdgeStyle;rounded=0;orthogonalLoop=1;jettySize=auto;html=1;" parent="JaaYy12fVb64TVp_esTt-159" source="JaaYy12fVb64TVp_esTt-164" target="JaaYy12fVb64TVp_esTt-170" edge="1">
          <mxGeometry relative="1" as="geometry" />
        </mxCell>
        <mxCell id="JaaYy12fVb64TVp_esTt-163" value="查看值班日历" style="edgeLabel;html=1;align=center;verticalAlign=middle;resizable=0;points=[];" parent="JaaYy12fVb64TVp_esTt-162" vertex="1" connectable="0">
          <mxGeometry x="-0.2779" y="-1" relative="1" as="geometry">
            <mxPoint x="1" y="2" as="offset" />
          </mxGeometry>
        </mxCell>
        <mxCell id="JaaYy12fVb64TVp_esTt-164" value="告警分派" style="rounded=1;whiteSpace=wrap;html=1;" parent="JaaYy12fVb64TVp_esTt-159" vertex="1">
          <mxGeometry x="30" y="200" width="107.5" height="30" as="geometry" />
        </mxCell>
        <mxCell id="JaaYy12fVb64TVp_esTt-165" value="" style="sketch=0;outlineConnect=0;fontColor=#232F3E;gradientColor=none;strokeColor=#232F3E;fillColor=#ffffff;dashed=0;verticalLabelPosition=bottom;verticalAlign=top;align=center;html=1;fontSize=12;fontStyle=0;aspect=fixed;shape=mxgraph.aws4.resourceIcon;resIcon=mxgraph.aws4.client;" parent="JaaYy12fVb64TVp_esTt-159" vertex="1">
          <mxGeometry x="31.25" y="60" width="60" height="60" as="geometry" />
        </mxCell>
        <mxCell id="JaaYy12fVb64TVp_esTt-166" value="" style="sketch=0;outlineConnect=0;fontColor=#232F3E;gradientColor=none;strokeColor=#232F3E;fillColor=#ffffff;dashed=0;verticalLabelPosition=bottom;verticalAlign=top;align=center;html=1;fontSize=12;fontStyle=0;aspect=fixed;shape=mxgraph.aws4.resourceIcon;resIcon=mxgraph.aws4.client;" parent="JaaYy12fVb64TVp_esTt-159" vertex="1">
          <mxGeometry x="53.75" y="50" width="60" height="60" as="geometry" />
        </mxCell>
        <mxCell id="JaaYy12fVb64TVp_esTt-167" value="" style="sketch=0;outlineConnect=0;fontColor=#232F3E;gradientColor=none;strokeColor=#232F3E;fillColor=#ffffff;dashed=0;verticalLabelPosition=bottom;verticalAlign=top;align=center;html=1;fontSize=12;fontStyle=0;aspect=fixed;shape=mxgraph.aws4.resourceIcon;resIcon=mxgraph.aws4.client;" parent="JaaYy12fVb64TVp_esTt-159" vertex="1">
          <mxGeometry x="78.75" y="40" width="60" height="60" as="geometry" />
        </mxCell>
        <mxCell id="JaaYy12fVb64TVp_esTt-168" value="值守多个告警平台" style="text;html=1;align=center;verticalAlign=middle;whiteSpace=wrap;rounded=0;" parent="JaaYy12fVb64TVp_esTt-159" vertex="1">
          <mxGeometry x="30" y="20" width="110" height="30" as="geometry" />
        </mxCell>
        <mxCell id="JaaYy12fVb64TVp_esTt-169" value="" style="endArrow=classic;html=1;rounded=0;" parent="JaaYy12fVb64TVp_esTt-159" edge="1">
          <mxGeometry width="50" height="50" relative="1" as="geometry">
            <mxPoint x="84.62" y="110" as="sourcePoint" />
            <mxPoint x="84.62" y="150" as="targetPoint" />
          </mxGeometry>
        </mxCell>
        <mxCell id="JaaYy12fVb64TVp_esTt-208" value="电话通知" style="edgeStyle=orthogonalEdgeStyle;rounded=0;orthogonalLoop=1;jettySize=auto;html=1;entryX=0.486;entryY=-0.124;entryDx=0;entryDy=0;entryPerimeter=0;" parent="JaaYy12fVb64TVp_esTt-159" source="JaaYy12fVb64TVp_esTt-170" target="JaaYy12fVb64TVp_esTt-205" edge="1">
          <mxGeometry relative="1" as="geometry">
            <mxPoint x="84" y="340" as="targetPoint" />
          </mxGeometry>
        </mxCell>
        <mxCell id="JaaYy12fVb64TVp_esTt-170" value="告警通知" style="rounded=1;whiteSpace=wrap;html=1;" parent="JaaYy12fVb64TVp_esTt-159" vertex="1">
          <mxGeometry x="30" y="280" width="107.5" height="30" as="geometry" />
        </mxCell>
        <mxCell id="JaaYy12fVb64TVp_esTt-211" value="否" style="edgeStyle=orthogonalEdgeStyle;rounded=0;orthogonalLoop=1;jettySize=auto;html=1;" parent="JaaYy12fVb64TVp_esTt-159" source="JaaYy12fVb64TVp_esTt-205" target="JaaYy12fVb64TVp_esTt-209" edge="1">
          <mxGeometry relative="1" as="geometry" />
        </mxCell>
        <mxCell id="JaaYy12fVb64TVp_esTt-205" value="是否响应" style="rhombus;whiteSpace=wrap;html=1;" parent="JaaYy12fVb64TVp_esTt-159" vertex="1">
          <mxGeometry x="45" y="350" width="80" height="30" as="geometry" />
        </mxCell>
        <mxCell id="JaaYy12fVb64TVp_esTt-218" value="" style="edgeStyle=orthogonalEdgeStyle;rounded=0;orthogonalLoop=1;jettySize=auto;html=1;" parent="JaaYy12fVb64TVp_esTt-159" source="JaaYy12fVb64TVp_esTt-209" target="JaaYy12fVb64TVp_esTt-215" edge="1">
          <mxGeometry relative="1" as="geometry" />
        </mxCell>
        <mxCell id="JaaYy12fVb64TVp_esTt-209" value="告警升级" style="rounded=1;whiteSpace=wrap;html=1;" parent="JaaYy12fVb64TVp_esTt-159" vertex="1">
          <mxGeometry x="160" y="350" width="57.5" height="30" as="geometry" />
        </mxCell>
        <mxCell id="JaaYy12fVb64TVp_esTt-215" value="是否响应" style="rhombus;whiteSpace=wrap;html=1;" parent="JaaYy12fVb64TVp_esTt-159" vertex="1">
          <mxGeometry x="148.75" y="400" width="80" height="30" as="geometry" />
        </mxCell>
        <mxCell id="JaaYy12fVb64TVp_esTt-221" value="否" style="text;html=1;align=center;verticalAlign=middle;whiteSpace=wrap;rounded=0;" parent="JaaYy12fVb64TVp_esTt-159" vertex="1">
          <mxGeometry x="217.5" y="390" width="60" height="30" as="geometry" />
        </mxCell>
        <mxCell id="JaaYy12fVb64TVp_esTt-174" value="二线运维(居家电话值守)" style="swimlane;startSize=20;" parent="1" vertex="1">
          <mxGeometry x="-620" y="260" width="230" height="790" as="geometry" />
        </mxCell>
        <mxCell id="JaaYy12fVb64TVp_esTt-234" value="" style="edgeStyle=orthogonalEdgeStyle;rounded=0;orthogonalLoop=1;jettySize=auto;html=1;" parent="JaaYy12fVb64TVp_esTt-174" source="JaaYy12fVb64TVp_esTt-212" target="JaaYy12fVb64TVp_esTt-233" edge="1">
          <mxGeometry relative="1" as="geometry" />
        </mxCell>
        <mxCell id="JaaYy12fVb64TVp_esTt-212" value="告警响应" style="rounded=1;whiteSpace=wrap;html=1;" parent="JaaYy12fVb64TVp_esTt-174" vertex="1">
          <mxGeometry x="40" y="567" width="80" height="30" as="geometry" />
        </mxCell>
        <mxCell id="JaaYy12fVb64TVp_esTt-237" value="" style="edgeStyle=orthogonalEdgeStyle;rounded=0;orthogonalLoop=1;jettySize=auto;html=1;" parent="JaaYy12fVb64TVp_esTt-174" source="JaaYy12fVb64TVp_esTt-233" target="JaaYy12fVb64TVp_esTt-236" edge="1">
          <mxGeometry relative="1" as="geometry" />
        </mxCell>
        <mxCell id="JaaYy12fVb64TVp_esTt-241" value="" style="edgeStyle=orthogonalEdgeStyle;rounded=0;orthogonalLoop=1;jettySize=auto;html=1;" parent="JaaYy12fVb64TVp_esTt-174" source="JaaYy12fVb64TVp_esTt-233" target="JaaYy12fVb64TVp_esTt-240" edge="1">
          <mxGeometry relative="1" as="geometry" />
        </mxCell>
        <mxCell id="JaaYy12fVb64TVp_esTt-233" value="是否可关闭" style="rhombus;whiteSpace=wrap;html=1;" parent="JaaYy12fVb64TVp_esTt-174" vertex="1">
          <mxGeometry x="45" y="620" width="70" height="40" as="geometry" />
        </mxCell>
        <mxCell id="JaaYy12fVb64TVp_esTt-236" value="告警关闭" style="rounded=1;whiteSpace=wrap;html=1;" parent="JaaYy12fVb64TVp_esTt-174" vertex="1">
          <mxGeometry x="40" y="690" width="80" height="30" as="geometry" />
        </mxCell>
        <mxCell id="JaaYy12fVb64TVp_esTt-239" value="是" style="text;html=1;align=center;verticalAlign=middle;whiteSpace=wrap;rounded=0;" parent="JaaYy12fVb64TVp_esTt-174" vertex="1">
          <mxGeometry x="40" y="660" width="60" height="30" as="geometry" />
        </mxCell>
        <mxCell id="JaaYy12fVb64TVp_esTt-244" value="" style="edgeStyle=orthogonalEdgeStyle;rounded=0;orthogonalLoop=1;jettySize=auto;html=1;" parent="JaaYy12fVb64TVp_esTt-174" source="JaaYy12fVb64TVp_esTt-240" target="JaaYy12fVb64TVp_esTt-243" edge="1">
          <mxGeometry relative="1" as="geometry" />
        </mxCell>
        <mxCell id="JaaYy12fVb64TVp_esTt-240" value="告警处理" style="rounded=1;whiteSpace=wrap;html=1;" parent="JaaYy12fVb64TVp_esTt-174" vertex="1">
          <mxGeometry x="130" y="625" width="60" height="30" as="geometry" />
        </mxCell>
        <mxCell id="JaaYy12fVb64TVp_esTt-242" value="否" style="text;html=1;align=center;verticalAlign=middle;whiteSpace=wrap;rounded=0;" parent="JaaYy12fVb64TVp_esTt-174" vertex="1">
          <mxGeometry x="90" y="610" width="60" height="30" as="geometry" />
        </mxCell>
        <mxCell id="JaaYy12fVb64TVp_esTt-246" value="" style="edgeStyle=orthogonalEdgeStyle;rounded=0;orthogonalLoop=1;jettySize=auto;html=1;" parent="JaaYy12fVb64TVp_esTt-174" source="JaaYy12fVb64TVp_esTt-243" target="JaaYy12fVb64TVp_esTt-245" edge="1">
          <mxGeometry relative="1" as="geometry" />
        </mxCell>
        <mxCell id="JaaYy12fVb64TVp_esTt-249" style="edgeStyle=orthogonalEdgeStyle;rounded=0;orthogonalLoop=1;jettySize=auto;html=1;entryX=0;entryY=0.5;entryDx=0;entryDy=0;" parent="JaaYy12fVb64TVp_esTt-174" source="JaaYy12fVb64TVp_esTt-243" target="JaaYy12fVb64TVp_esTt-248" edge="1">
          <mxGeometry relative="1" as="geometry" />
        </mxCell>
        <mxCell id="JaaYy12fVb64TVp_esTt-258" value="否" style="edgeLabel;html=1;align=center;verticalAlign=middle;resizable=0;points=[];" parent="JaaYy12fVb64TVp_esTt-249" vertex="1" connectable="0">
          <mxGeometry x="-0.7744" y="4" relative="1" as="geometry">
            <mxPoint as="offset" />
          </mxGeometry>
        </mxCell>
        <mxCell id="JaaYy12fVb64TVp_esTt-274" value="电话升级" style="edgeLabel;html=1;align=center;verticalAlign=middle;resizable=0;points=[];" parent="JaaYy12fVb64TVp_esTt-249" vertex="1" connectable="0">
          <mxGeometry x="0.0758" y="1" relative="1" as="geometry">
            <mxPoint as="offset" />
          </mxGeometry>
        </mxCell>
        <mxCell id="JaaYy12fVb64TVp_esTt-243" value="是否恢复" style="rhombus;whiteSpace=wrap;html=1;" parent="JaaYy12fVb64TVp_esTt-174" vertex="1">
          <mxGeometry x="125" y="680" width="70" height="40" as="geometry" />
        </mxCell>
        <mxCell id="JaaYy12fVb64TVp_esTt-245" value="告警恢复" style="rounded=1;whiteSpace=wrap;html=1;" parent="JaaYy12fVb64TVp_esTt-174" vertex="1">
          <mxGeometry x="130" y="740" width="60" height="30" as="geometry" />
        </mxCell>
        <mxCell id="JaaYy12fVb64TVp_esTt-230" value="系统A/B岗(居家电话值守)" style="swimlane;startSize=20;" parent="JaaYy12fVb64TVp_esTt-174" vertex="1">
          <mxGeometry x="230" width="170" height="790" as="geometry" />
        </mxCell>
        <mxCell id="JaaYy12fVb64TVp_esTt-255" value="" style="edgeStyle=orthogonalEdgeStyle;rounded=0;orthogonalLoop=1;jettySize=auto;html=1;" parent="JaaYy12fVb64TVp_esTt-230" source="JaaYy12fVb64TVp_esTt-248" target="JaaYy12fVb64TVp_esTt-251" edge="1">
          <mxGeometry relative="1" as="geometry" />
        </mxCell>
        <mxCell id="JaaYy12fVb64TVp_esTt-248" value="告警处理" style="rounded=1;whiteSpace=wrap;html=1;" parent="JaaYy12fVb64TVp_esTt-230" vertex="1">
          <mxGeometry x="20" y="625" width="60" height="30" as="geometry" />
        </mxCell>
        <mxCell id="JaaYy12fVb64TVp_esTt-254" value="" style="edgeStyle=orthogonalEdgeStyle;rounded=0;orthogonalLoop=1;jettySize=auto;html=1;" parent="JaaYy12fVb64TVp_esTt-230" source="JaaYy12fVb64TVp_esTt-250" target="JaaYy12fVb64TVp_esTt-248" edge="1">
          <mxGeometry relative="1" as="geometry" />
        </mxCell>
        <mxCell id="JaaYy12fVb64TVp_esTt-250" value="告警响应" style="rounded=1;whiteSpace=wrap;html=1;" parent="JaaYy12fVb64TVp_esTt-230" vertex="1">
          <mxGeometry x="10" y="567" width="80" height="30" as="geometry" />
        </mxCell>
        <mxCell id="JaaYy12fVb64TVp_esTt-257" value="" style="edgeStyle=orthogonalEdgeStyle;rounded=0;orthogonalLoop=1;jettySize=auto;html=1;" parent="JaaYy12fVb64TVp_esTt-230" source="JaaYy12fVb64TVp_esTt-251" target="JaaYy12fVb64TVp_esTt-256" edge="1">
          <mxGeometry relative="1" as="geometry" />
        </mxCell>
        <mxCell id="JaaYy12fVb64TVp_esTt-251" value="是否恢复" style="rhombus;whiteSpace=wrap;html=1;" parent="JaaYy12fVb64TVp_esTt-230" vertex="1">
          <mxGeometry x="15" y="680" width="70" height="40" as="geometry" />
        </mxCell>
        <mxCell id="JaaYy12fVb64TVp_esTt-256" value="告警恢复" style="rounded=1;whiteSpace=wrap;html=1;" parent="JaaYy12fVb64TVp_esTt-230" vertex="1">
          <mxGeometry x="20" y="740" width="60" height="30" as="geometry" />
        </mxCell>
        <mxCell id="JaaYy12fVb64TVp_esTt-261" value="是" style="text;html=1;align=center;verticalAlign=middle;whiteSpace=wrap;rounded=0;" parent="JaaYy12fVb64TVp_esTt-230" vertex="1">
          <mxGeometry x="30" y="710" width="60" height="30" as="geometry" />
        </mxCell>
        <mxCell id="JaaYy12fVb64TVp_esTt-260" value="是" style="text;html=1;align=center;verticalAlign=middle;whiteSpace=wrap;rounded=0;" parent="JaaYy12fVb64TVp_esTt-174" vertex="1">
          <mxGeometry x="140" y="710" width="60" height="30" as="geometry" />
        </mxCell>
        <mxCell id="JaaYy12fVb64TVp_esTt-278" value="" style="endArrow=none;html=1;rounded=0;" parent="JaaYy12fVb64TVp_esTt-174" edge="1">
          <mxGeometry width="50" height="50" relative="1" as="geometry">
            <mxPoint x="80" y="850" as="sourcePoint" />
            <mxPoint x="79.56999999999994" y="720" as="targetPoint" />
          </mxGeometry>
        </mxCell>
        <mxCell id="JaaYy12fVb64TVp_esTt-201" value="小组管理员(居家电话值守)" style="swimlane;startSize=20;" parent="1" vertex="1">
          <mxGeometry x="-220" y="260" width="150" height="790" as="geometry" />
        </mxCell>
        <mxCell id="JaaYy12fVb64TVp_esTt-268" value="" style="edgeStyle=orthogonalEdgeStyle;rounded=0;orthogonalLoop=1;jettySize=auto;html=1;" parent="JaaYy12fVb64TVp_esTt-201" source="JaaYy12fVb64TVp_esTt-203" target="JaaYy12fVb64TVp_esTt-266" edge="1">
          <mxGeometry relative="1" as="geometry" />
        </mxCell>
        <mxCell id="JaaYy12fVb64TVp_esTt-203" value="告警响应" style="rounded=1;whiteSpace=wrap;html=1;" parent="JaaYy12fVb64TVp_esTt-201" vertex="1">
          <mxGeometry x="40" y="510" width="80" height="30" as="geometry" />
        </mxCell>
        <mxCell id="JaaYy12fVb64TVp_esTt-270" value="" style="edgeStyle=orthogonalEdgeStyle;rounded=0;orthogonalLoop=1;jettySize=auto;html=1;" parent="JaaYy12fVb64TVp_esTt-201" source="JaaYy12fVb64TVp_esTt-266" target="JaaYy12fVb64TVp_esTt-267" edge="1">
          <mxGeometry relative="1" as="geometry" />
        </mxCell>
        <mxCell id="JaaYy12fVb64TVp_esTt-266" value="告警处理" style="rounded=1;whiteSpace=wrap;html=1;" parent="JaaYy12fVb64TVp_esTt-201" vertex="1">
          <mxGeometry x="50" y="620" width="60" height="30" as="geometry" />
        </mxCell>
        <mxCell id="JaaYy12fVb64TVp_esTt-267" value="告警恢复" style="rounded=1;whiteSpace=wrap;html=1;" parent="JaaYy12fVb64TVp_esTt-201" vertex="1">
          <mxGeometry x="50" y="740" width="60" height="30" as="geometry" />
        </mxCell>
        <mxCell id="JaaYy12fVb64TVp_esTt-216" style="edgeStyle=orthogonalEdgeStyle;rounded=0;orthogonalLoop=1;jettySize=auto;html=1;entryX=0;entryY=0.5;entryDx=0;entryDy=0;" parent="1" source="JaaYy12fVb64TVp_esTt-205" target="JaaYy12fVb64TVp_esTt-212" edge="1">
          <mxGeometry relative="1" as="geometry">
            <Array as="points">
              <mxPoint x="-875" y="842" />
            </Array>
          </mxGeometry>
        </mxCell>
        <mxCell id="JaaYy12fVb64TVp_esTt-223" value="是" style="edgeLabel;html=1;align=center;verticalAlign=middle;resizable=0;points=[];" parent="JaaYy12fVb64TVp_esTt-216" vertex="1" connectable="0">
          <mxGeometry x="-0.7616" y="-2" relative="1" as="geometry">
            <mxPoint as="offset" />
          </mxGeometry>
        </mxCell>
        <mxCell id="JaaYy12fVb64TVp_esTt-220" value="" style="edgeStyle=orthogonalEdgeStyle;rounded=0;orthogonalLoop=1;jettySize=auto;html=1;" parent="1" source="JaaYy12fVb64TVp_esTt-215" target="JaaYy12fVb64TVp_esTt-219" edge="1">
          <mxGeometry relative="1" as="geometry" />
        </mxCell>
        <mxCell id="JaaYy12fVb64TVp_esTt-228" style="edgeStyle=orthogonalEdgeStyle;rounded=0;orthogonalLoop=1;jettySize=auto;html=1;entryX=0;entryY=0.5;entryDx=0;entryDy=0;" parent="1" source="JaaYy12fVb64TVp_esTt-219" target="JaaYy12fVb64TVp_esTt-203" edge="1">
          <mxGeometry relative="1" as="geometry">
            <Array as="points">
              <mxPoint x="-671" y="785" />
            </Array>
          </mxGeometry>
        </mxCell>
        <mxCell id="JaaYy12fVb64TVp_esTt-219" value="告警升级" style="rounded=1;whiteSpace=wrap;html=1;" parent="1" vertex="1">
          <mxGeometry x="-700" y="660" width="57.5" height="30" as="geometry" />
        </mxCell>
        <mxCell id="JaaYy12fVb64TVp_esTt-171" value="" style="endArrow=none;html=1;rounded=0;" parent="1" edge="1">
          <mxGeometry width="50" height="50" relative="1" as="geometry">
            <mxPoint x="-960" y="750" as="sourcePoint" />
            <mxPoint x="-70" y="750" as="targetPoint" />
            <Array as="points">
              <mxPoint x="-441" y="750" />
            </Array>
          </mxGeometry>
        </mxCell>
        <mxCell id="JaaYy12fVb64TVp_esTt-262" style="edgeStyle=orthogonalEdgeStyle;rounded=0;orthogonalLoop=1;jettySize=auto;html=1;exitX=0.5;exitY=1;exitDx=0;exitDy=0;entryX=0.5;entryY=0;entryDx=0;entryDy=0;" parent="1" source="JaaYy12fVb64TVp_esTt-215" target="JaaYy12fVb64TVp_esTt-250" edge="1">
          <mxGeometry relative="1" as="geometry">
            <Array as="points">
              <mxPoint x="-771" y="810" />
              <mxPoint x="-340" y="810" />
            </Array>
          </mxGeometry>
        </mxCell>
        <mxCell id="JaaYy12fVb64TVp_esTt-263" value="是" style="edgeLabel;html=1;align=center;verticalAlign=middle;resizable=0;points=[];" parent="JaaYy12fVb64TVp_esTt-262" vertex="1" connectable="0">
          <mxGeometry x="-0.9264" y="-2" relative="1" as="geometry">
            <mxPoint as="offset" />
          </mxGeometry>
        </mxCell>
        <mxCell id="JaaYy12fVb64TVp_esTt-271" style="edgeStyle=orthogonalEdgeStyle;rounded=0;orthogonalLoop=1;jettySize=auto;html=1;entryX=0;entryY=0.5;entryDx=0;entryDy=0;" parent="1" source="JaaYy12fVb64TVp_esTt-251" target="JaaYy12fVb64TVp_esTt-266" edge="1">
          <mxGeometry relative="1" as="geometry" />
        </mxCell>
        <mxCell id="JaaYy12fVb64TVp_esTt-272" value="否" style="edgeLabel;html=1;align=center;verticalAlign=middle;resizable=0;points=[];" parent="JaaYy12fVb64TVp_esTt-271" vertex="1" connectable="0">
          <mxGeometry x="-0.566" relative="1" as="geometry">
            <mxPoint as="offset" />
          </mxGeometry>
        </mxCell>
        <mxCell id="JaaYy12fVb64TVp_esTt-273" value="电话升级" style="edgeLabel;html=1;align=center;verticalAlign=middle;resizable=0;points=[];" parent="JaaYy12fVb64TVp_esTt-271" vertex="1" connectable="0">
          <mxGeometry x="0.1753" y="1" relative="1" as="geometry">
            <mxPoint as="offset" />
          </mxGeometry>
        </mxCell>
        <mxCell id="JaaYy12fVb64TVp_esTt-280" value="" style="endArrow=none;html=1;rounded=0;" parent="1" edge="1">
          <mxGeometry width="50" height="50" relative="1" as="geometry">
            <mxPoint x="-460" y="1110" as="sourcePoint" />
            <mxPoint x="-460.00000000000006" y="1030" as="targetPoint" />
          </mxGeometry>
        </mxCell>
        <mxCell id="JaaYy12fVb64TVp_esTt-282" value="" style="endArrow=none;html=1;rounded=0;" parent="1" edge="1">
          <mxGeometry width="50" height="50" relative="1" as="geometry">
            <mxPoint x="-340" y="1110" as="sourcePoint" />
            <mxPoint x="-340.00000000000006" y="1030" as="targetPoint" />
          </mxGeometry>
        </mxCell>
        <mxCell id="JaaYy12fVb64TVp_esTt-284" value="告警归档" style="rounded=1;whiteSpace=wrap;html=1;" parent="1" vertex="1">
          <mxGeometry x="-940" y="1090" width="89" height="40" as="geometry" />
        </mxCell>
        <mxCell id="JaaYy12fVb64TVp_esTt-283" style="edgeStyle=orthogonalEdgeStyle;rounded=0;orthogonalLoop=1;jettySize=auto;html=1;entryX=1;entryY=0.5;entryDx=0;entryDy=0;" parent="1" source="JaaYy12fVb64TVp_esTt-267" target="JaaYy12fVb64TVp_esTt-284" edge="1">
          <mxGeometry relative="1" as="geometry">
            <mxPoint x="-140.00000000000045" y="1110" as="targetPoint" />
            <Array as="points">
              <mxPoint x="-140" y="1110" />
            </Array>
          </mxGeometry>
        </mxCell>
        <mxCell id="JaaYy12fVb64TVp_esTt-285" value="" style="endArrow=none;html=1;rounded=0;exitX=1;exitY=1;exitDx=0;exitDy=0;" parent="1" source="JaaYy12fVb64TVp_esTt-158" edge="1">
          <mxGeometry width="50" height="50" relative="1" as="geometry">
            <mxPoint x="-900" y="1190" as="sourcePoint" />
            <mxPoint x="-70" y="1160" as="targetPoint" />
          </mxGeometry>
        </mxCell>
        <mxCell id="JaaYy12fVb64TVp_esTt-286" value="" style="endArrow=none;html=1;rounded=0;entryX=1;entryY=1;entryDx=0;entryDy=0;" parent="1" target="JaaYy12fVb64TVp_esTt-201" edge="1">
          <mxGeometry width="50" height="50" relative="1" as="geometry">
            <mxPoint x="-70" y="1160" as="sourcePoint" />
            <mxPoint x="-70" y="1060" as="targetPoint" />
          </mxGeometry>
        </mxCell>
        <mxCell id="JaaYy12fVb64TVp_esTt-288" value="" style="endArrow=none;html=1;rounded=0;" parent="1" edge="1">
          <mxGeometry width="50" height="50" relative="1" as="geometry">
            <mxPoint x="-620" y="1160" as="sourcePoint" />
            <mxPoint x="-620" y="1050" as="targetPoint" />
          </mxGeometry>
        </mxCell>
        <mxCell id="JaaYy12fVb64TVp_esTt-289" value="" style="endArrow=none;html=1;rounded=0;" parent="1" edge="1">
          <mxGeometry width="50" height="50" relative="1" as="geometry">
            <mxPoint x="-390" y="1160" as="sourcePoint" />
            <mxPoint x="-390" y="1050" as="targetPoint" />
          </mxGeometry>
        </mxCell>
        <mxCell id="JaaYy12fVb64TVp_esTt-290" value="" style="endArrow=none;html=1;rounded=0;" parent="1" edge="1">
          <mxGeometry width="50" height="50" relative="1" as="geometry">
            <mxPoint x="-220" y="1160" as="sourcePoint" />
            <mxPoint x="-220" y="1050" as="targetPoint" />
          </mxGeometry>
        </mxCell>
        <mxCell id="mrDc4LvxRdIbX4vzSFws-1" value="小组管理员(二部小组现场)" style="swimlane;startSize=20;" vertex="1" parent="1">
          <mxGeometry x="850" width="190" height="680" as="geometry" />
        </mxCell>
        <mxCell id="mrDc4LvxRdIbX4vzSFws-2" value="" style="edgeStyle=orthogonalEdgeStyle;rounded=0;orthogonalLoop=1;jettySize=auto;html=1;entryX=0.5;entryY=0;entryDx=0;entryDy=0;" edge="1" parent="mrDc4LvxRdIbX4vzSFws-1" source="mrDc4LvxRdIbX4vzSFws-3" target="mrDc4LvxRdIbX4vzSFws-4">
          <mxGeometry relative="1" as="geometry">
            <mxPoint x="89.00000000000045" y="500" as="targetPoint" />
          </mxGeometry>
        </mxCell>
        <mxCell id="mrDc4LvxRdIbX4vzSFws-3" value="告警处理" style="rounded=1;whiteSpace=wrap;html=1;" vertex="1" parent="mrDc4LvxRdIbX4vzSFws-1">
          <mxGeometry x="49" y="420" width="80" height="30" as="geometry" />
        </mxCell>
        <mxCell id="mrDc4LvxRdIbX4vzSFws-4" value="告警恢复" style="rounded=1;whiteSpace=wrap;html=1;" vertex="1" parent="mrDc4LvxRdIbX4vzSFws-1">
          <mxGeometry x="49" y="570" width="80" height="30" as="geometry" />
        </mxCell>
        <mxCell id="mrDc4LvxRdIbX4vzSFws-9" style="edgeStyle=orthogonalEdgeStyle;rounded=0;orthogonalLoop=1;jettySize=auto;html=1;entryX=0;entryY=0.5;entryDx=0;entryDy=0;" edge="1" parent="1" source="mrDc4LvxRdIbX4vzSFws-5" target="mrDc4LvxRdIbX4vzSFws-3">
          <mxGeometry relative="1" as="geometry">
            <Array as="points">
              <mxPoint x="870" y="520" />
              <mxPoint x="870" y="435" />
            </Array>
          </mxGeometry>
        </mxCell>
        <mxCell id="mrDc4LvxRdIbX4vzSFws-10" value="否" style="edgeLabel;html=1;align=center;verticalAlign=middle;resizable=0;points=[];" vertex="1" connectable="0" parent="mrDc4LvxRdIbX4vzSFws-9">
          <mxGeometry x="-0.6523" relative="1" as="geometry">
            <mxPoint as="offset" />
          </mxGeometry>
        </mxCell>
        <mxCell id="mrDc4LvxRdIbX4vzSFws-11" value="告警升级&lt;div&gt;(口头传达)&lt;/div&gt;" style="edgeLabel;html=1;align=center;verticalAlign=middle;resizable=0;points=[];" vertex="1" connectable="0" parent="mrDc4LvxRdIbX4vzSFws-9">
          <mxGeometry x="0.3961" y="-1" relative="1" as="geometry">
            <mxPoint as="offset" />
          </mxGeometry>
        </mxCell>
        <mxCell id="mrDc4LvxRdIbX4vzSFws-12" style="edgeStyle=orthogonalEdgeStyle;rounded=0;orthogonalLoop=1;jettySize=auto;html=1;entryX=1;entryY=0.75;entryDx=0;entryDy=0;" edge="1" parent="1" source="mrDc4LvxRdIbX4vzSFws-4" target="JaaYy12fVb64TVp_esTt-85">
          <mxGeometry relative="1" as="geometry">
            <Array as="points">
              <mxPoint x="939" y="650" />
            </Array>
          </mxGeometry>
        </mxCell>
      </root>
    </mxGraphModel>
  </diagram>
</mxfile>
